<mxfile host="app.diagrams.net" modified="2024-05-01T15:11:23.467Z" agent="Mozilla/5.0 (Windows NT 10.0; Win64; x64) AppleWebKit/537.36 (KHTML, like Gecko) Chrome/124.0.0.0 Safari/537.36" etag="QuaGKUHq49xghpc8ZA9b" version="24.3.1" type="device">
  <diagram name="Страница — 1" id="5X1WnvhzbiA4pKIqT3eM">
    <mxGraphModel dx="1144" dy="514" grid="1" gridSize="10" guides="1" tooltips="1" connect="1" arrows="1" fold="1" page="1" pageScale="1" pageWidth="827" pageHeight="1169" math="0" shadow="0">
      <root>
        <mxCell id="0" />
        <mxCell id="1" parent="0" />
        <mxCell id="xjaO1h2mrQuexVpJjpqr-1" value="Покупка ключа" style="rounded=0;whiteSpace=wrap;html=1;" vertex="1" parent="1">
          <mxGeometry x="350" y="500" width="120" height="60" as="geometry" />
        </mxCell>
        <mxCell id="xjaO1h2mrQuexVpJjpqr-2" value="" style="endArrow=classic;html=1;rounded=0;entryX=0;entryY=0.25;entryDx=0;entryDy=0;" edge="1" parent="1">
          <mxGeometry width="50" height="50" relative="1" as="geometry">
            <mxPoint x="260" y="530" as="sourcePoint" />
            <mxPoint x="350" y="530" as="targetPoint" />
          </mxGeometry>
        </mxCell>
        <mxCell id="xjaO1h2mrQuexVpJjpqr-4" value="" style="endArrow=classic;html=1;rounded=0;exitX=1;exitY=0.5;exitDx=0;exitDy=0;" edge="1" parent="1" source="xjaO1h2mrQuexVpJjpqr-1">
          <mxGeometry width="50" height="50" relative="1" as="geometry">
            <mxPoint x="540" y="580" as="sourcePoint" />
            <mxPoint x="550" y="530" as="targetPoint" />
          </mxGeometry>
        </mxCell>
        <mxCell id="xjaO1h2mrQuexVpJjpqr-5" value="" style="endArrow=classic;html=1;rounded=0;entryX=0.25;entryY=1;entryDx=0;entryDy=0;" edge="1" parent="1">
          <mxGeometry width="50" height="50" relative="1" as="geometry">
            <mxPoint x="375.74" y="640" as="sourcePoint" />
            <mxPoint x="375.74" y="560" as="targetPoint" />
          </mxGeometry>
        </mxCell>
        <mxCell id="xjaO1h2mrQuexVpJjpqr-6" value="" style="endArrow=classic;html=1;rounded=0;entryX=0.75;entryY=1;entryDx=0;entryDy=0;" edge="1" parent="1">
          <mxGeometry width="50" height="50" relative="1" as="geometry">
            <mxPoint x="449.76" y="640" as="sourcePoint" />
            <mxPoint x="449.76" y="560" as="targetPoint" />
          </mxGeometry>
        </mxCell>
        <mxCell id="xjaO1h2mrQuexVpJjpqr-7" value="" style="endArrow=classic;html=1;rounded=0;entryX=0.5;entryY=0;entryDx=0;entryDy=0;" edge="1" parent="1" target="xjaO1h2mrQuexVpJjpqr-1">
          <mxGeometry width="50" height="50" relative="1" as="geometry">
            <mxPoint x="410" y="430" as="sourcePoint" />
            <mxPoint x="400" y="440" as="targetPoint" />
            <Array as="points" />
          </mxGeometry>
        </mxCell>
        <mxCell id="xjaO1h2mrQuexVpJjpqr-8" value="Заказ клиента" style="text;html=1;align=center;verticalAlign=middle;whiteSpace=wrap;rounded=0;" vertex="1" parent="1">
          <mxGeometry x="200" y="512.5" width="60" height="30" as="geometry" />
        </mxCell>
        <mxCell id="xjaO1h2mrQuexVpJjpqr-10" value="Ключ в личном кабинете клиента" style="text;html=1;align=center;verticalAlign=middle;whiteSpace=wrap;rounded=0;" vertex="1" parent="1">
          <mxGeometry x="550" y="517.5" width="105" height="25" as="geometry" />
        </mxCell>
        <mxCell id="xjaO1h2mrQuexVpJjpqr-11" value="Администратор сайта" style="text;html=1;align=center;verticalAlign=middle;whiteSpace=wrap;rounded=0;" vertex="1" parent="1">
          <mxGeometry x="421" y="650" width="60" height="30" as="geometry" />
        </mxCell>
        <mxCell id="xjaO1h2mrQuexVpJjpqr-12" value="Продавец Ключа" style="text;html=1;align=center;verticalAlign=middle;whiteSpace=wrap;rounded=0;" vertex="1" parent="1">
          <mxGeometry x="346" y="650" width="60" height="30" as="geometry" />
        </mxCell>
        <mxCell id="xjaO1h2mrQuexVpJjpqr-13" value="Данные о наличие ключа" style="text;html=1;align=center;verticalAlign=middle;whiteSpace=wrap;rounded=0;" vertex="1" parent="1">
          <mxGeometry x="362.5" y="400" width="95" height="30" as="geometry" />
        </mxCell>
      </root>
    </mxGraphModel>
  </diagram>
</mxfile>
